Coordinates
version=1
nRows=14
nColumns=33
inDegrees=yes

Units are S.I. units (second, meters, Newtons, ...)
Angles are in degrees.

endheader
time	ground_thorax_rot_x	ground_thorax_rot_y	ground_thorax_rot_z	ground_thorax_tx	ground_thorax_ty	ground_thorax_tz	clav_prot_r	clav_elev_r	scapula_abduction_r	scapula_elevation_r	scapula_upward_rot_r	scapula_winging_r	shoulder_elv_r	plane_of_elev_r	axial_rot_r	elbow_flexion_r	pro_sup_r	wrist_flex_r	wrist_dev_r	clav_prot_l	clav_elev_l	scapula_abduction_l	scapula_elevation_l	scapula_upward_rot_l	scapula_winging_l	shoulder_elv_l	plane_of_elev_l	axial_rot_l	elbow_flexion_l	pro_sup_l	wrist_flex_l	wrist_dev_l
      6.76000000	     30.57304654	     26.60090619	     37.64267324	    -54.43898407	    776.96035615	     13.16513921	     15.50195393	     38.01883849	     35.54303093	     45.00000000	    -45.00000000	  -2237.57308698	  -2632.41171397	    147.47111334	    179.99999979	   1083.54322747	     51.17191251	     19.83247070	     15.84333720	     10.61247828	    -45.00000000	    -37.74822681	     45.00000000	    -45.00000000	   1170.06583394	  -4253.67591200	     22.85249611	    -15.43491896	   1080.51815261	     41.67336076	     11.93749787	    -19.40121421
      6.77000000	     30.59452038	     26.43142481	     37.46640285	    -53.52020581	    777.61517120	     13.28780460	     15.88514862	     37.73027282	     35.75186927	     45.00000000	    -45.00000000	  -2237.47922961	  -2632.62509028	    147.69211068	    179.99999979	   1083.62107079	     51.21277904	     19.86268389	     15.69341842	     11.01107087	    -45.00000000	    -38.15347101	     45.00000000	    -45.00000000	   1169.75638909	  -4253.78164963	     22.71875420	    -15.56023990	   1080.67361732	     41.71273101	     11.62666436	    -19.16527155
      6.78000000	     30.78667007	     26.02782190	     37.27831048	    -53.02775194	    778.44176860	     13.47851082	     15.61528391	     38.10436428	     35.69658737	     45.00000000	    -45.00000000	  -2237.44651092	  -2632.40650867	    147.30483152	    179.99999979	   1083.72974514	     51.38953719	     19.88844526	     15.69662478	     10.86724445	    -45.00000000	    -37.80525778	     45.00000000	    -45.00000000	   1169.64994960	  -4253.73144483	     22.86218415	    -15.90266519	   1080.59566446	     41.77981099	     11.62792716	    -19.42239124
      6.79000000	     30.84999579	     25.73914335	     37.19712931	    -52.95350552	    779.38446945	     13.70942761	     15.77437138	     37.82981997	     35.87797588	     45.00000000	    -45.00000000	  -2237.45045175	  -2632.45739209	    147.30810895	    179.99999979	   1083.85069766	     51.60395059	     19.96766867	     15.57074453	     10.79341838	    -45.00000000	    -37.86295083	     45.00000000	    -45.00000000	   1169.53311660	  -4253.65125903	     22.77519121	    -16.39665267	   1080.77827571	     41.85855795	     11.40368237	    -19.39787248
      6.80000000	     30.93475787	     25.45888635	     37.07238471	    -53.28704207	    780.40290228	     13.94948165	     15.70640185	     37.93767818	     35.95934540	     45.00000000	    -45.00000000	  -2237.48998549	  -2632.37535093	    147.26415675	    179.99999979	   1084.06115180	     51.83099975	     20.07645134	     15.48832489	     10.71076194	    -45.00000000	    -37.82337704	     45.00000000	    -45.00000000	   1169.48380505	  -4253.53548577	     22.73771727	    -16.97879759	   1080.98264473	     41.83736499	     11.26865700	    -19.56332679
      6.81000000	     31.16780012	     25.12009676	     36.72959264	    -54.01664360	    781.45787294	     14.16364810	     15.70178857	     37.86820312	     36.21140131	     45.00000000	    -45.00000000	  -2237.72697526	  -2632.27571420	    147.13573069	    179.99999979	   1084.22476479	     51.98472680	     20.23020463	     15.42371308	     10.69477384	    -45.00000000	    -37.92784883	     45.00000000	    -45.00000000	   1169.42791796	  -4253.52240308	     22.82997576	    -17.50264584	   1081.17015941	     41.72371114	     11.13822462	    -19.72692990
      6.82000000	     31.20094617	     24.84235532	     36.67602215	    -55.13175640	    782.53630770	     14.32794016	     15.71645769	     37.94212121	     36.26380704	     45.00000000	    -45.00000000	  -2237.89699762	  -2632.18815368	    147.05492350	    179.99999979	   1084.55836489	     52.04331914	     20.39092752	     15.33359017	     10.62080589	    -45.00000000	    -37.85729929	     45.00000000	    -45.00000000	   1169.55161550	  -4253.27517817	     22.83950545	    -17.86031848	   1081.45919679	     41.46571168	     11.00966558	    -19.87657170
      6.83000000	     31.57941040	     24.15629560	     35.94556890	    -56.77044871	    783.49047087	     14.65861494	     15.96790607	     38.33832866	     36.61501152	     45.00000000	    -45.00000000	  -2237.87993036	  -2631.96318138	    146.98241740	    179.99999979	   1084.92831740	     51.95799804	     20.52286192	     15.21155041	     10.49533997	    -45.00000000	    -37.93465184	     45.00000000	    -45.00000000	   1169.48345796	  -4253.01120099	     23.05937754	    -17.97174490	   1081.78712695	     41.03658941	     10.89040266	    -19.99961362
      6.84000000	     31.66408600	     24.05145809	     35.85538961	    -58.65477059	    784.64684718	     14.68705930	     15.89249797	     38.09264215	     36.80794589	     45.00000000	    -45.00000000	  -2238.46309295	  -2631.92098050	    146.83600451	    179.99999979	   1085.11215081	     51.82315852	     20.72010573	     15.20182738	     10.44671457	    -45.00000000	    -37.91963883	     45.00000000	    -45.00000000	   1169.67555797	  -4252.81448830	     23.26620979	    -17.90474548	   1081.95397362	     40.56364677	     10.87087236	    -20.15774230
      6.85000000	     31.59058448	     23.86581138	     35.79324205	    -60.89468159	    785.85820090	     14.64851758	     16.07263207	     38.29405029	     36.90626341	     45.00000000	    -45.00000000	  -2238.54679219	  -2631.72533813	    147.03898122	    179.99999979	   1085.39147467	     51.47787524	     20.79129785	     15.09632578	     10.47012909	    -45.00000000	    -38.34307207	     45.00000000	    -45.00000000	   1169.91735067	  -4252.49787199	     23.16269160	    -17.88473464	   1082.36813306	     39.98864917	     10.80525647	    -20.23537579
      6.86000000	     31.61336553	     23.73586667	     35.72775237	    -63.47972717	    787.15294600	     14.55474435	     16.14799384	     38.29143769	     36.97373440	     45.00000000	    -45.00000000	  -2238.86808056	  -2631.51908447	    147.03278563	    179.99999979	   1085.60908630	     51.05464657	     20.90248222	     15.04141557	     10.52441997	    -45.00000000	    -38.45537727	     45.00000000	    -45.00000000	   1170.16640356	  -4252.20968976	     23.27968956	    -17.58406219	   1082.54948713	     39.34189782	     10.82609951	    -20.31111114
      6.87000000	     31.75350281	     23.45885159	     35.39637512	    -66.39532329	    788.55504515	     14.41431488	     16.26163147	     38.15665340	     37.15451010	     45.00000000	    -45.00000000	  -2239.30222583	  -2631.34758702	    146.92531737	    179.99999979	   1085.85017163	     50.49778702	     21.00659758	     14.97469620	     10.62225480	    -45.00000000	    -38.62138465	     45.00000000	    -44.62283237	   1170.45966334	  -4252.01084372	     23.41192463	    -17.38015185	   1082.69419190	     38.73421455	     10.87407515	    -20.38638532
      6.88000000	     32.02154476	     22.91293440	     34.61541945	    -69.62589322	    790.08559593	     14.23532233	     16.32501488	     38.16432549	     37.43126303	     45.00000000	    -45.00000000	  -2239.55682115	  -2631.06501815	    146.84259402	    179.99999979	   1086.22788729	     49.94380354	     21.14912281	     14.85349070	     10.55081854	    -45.00000000	    -39.04519285	     45.00000000	    -43.48146641	   1170.85048327	  -4251.86695600	     23.44567459	    -17.19949315	   1082.91189407	     38.16903139	     10.93574118	    -20.50162306
      6.89000000	     32.39929976	     22.19010325	     33.56905532	    -73.15507692	    791.75780038	     14.02495032	     16.31049224	     38.26148896	     37.80995240	     45.00000000	    -45.00000000	  -2239.79676887	  -2630.76934271	    146.71977003	    179.99999979	   1086.60096863	     49.42350267	     21.31897456	     14.70641278	     10.43943150	    -45.00000000	    -39.59275066	     45.00000000	    -42.02872788	   1171.29505429	  -4251.72225387	     23.42191608	    -17.06635233	   1083.14991961	     37.63199524	     11.00402238	    -20.63875946
